<?xml version="1.0" encoding="UTF-8" standalone="no"?>
<svg
   id="logo_jeiu"
   width="298"
   height="44"
   viewBox="0 0 298 44"
   version="1.1"
   sodipodi:docname="main_logo.svg"
   inkscape:version="1.3.2 (091e20e, 2023-11-25, custom)"
   xmlns:inkscape="http://www.inkscape.org/namespaces/inkscape"
   xmlns:sodipodi="http://sodipodi.sourceforge.net/DTD/sodipodi-0.dtd"
   xmlns="http://www.w3.org/2000/svg"
   xmlns:svg="http://www.w3.org/2000/svg">
  <sodipodi:namedview
     id="namedview1"
     pagecolor="#ffffff"
     bordercolor="#000000"
     borderopacity="0.25"
     inkscape:showpageshadow="2"
     inkscape:pageopacity="0.0"
     inkscape:pagecheckerboard="0"
     inkscape:deskcolor="#d1d1d1"
     showgrid="false"
     inkscape:zoom="2.3473154"
     inkscape:cx="142.0772"
     inkscape:cy="33.442459"
     inkscape:window-width="1920"
     inkscape:window-height="1017"
     inkscape:window-x="-8"
     inkscape:window-y="-8"
     inkscape:window-maximized="1"
     inkscape:current-layer="logo_jeiu" />
  <defs
     id="defs1">
    <clipPath
       id="clip-path">
      <rect
         id="사각형_1037"
         data-name="사각형 1037"
         width="298"
         height="44"
         transform="translate(310 78)"
         fill="none" />
    </clipPath>
    <clipPath
       id="clip-path-2">
      <rect
         id="사각형_1036"
         data-name="사각형 1036"
         width="296.271"
         height="38.414"
         fill="none" />
    </clipPath>
  </defs>
  <g
     id="g15"
     transform="translate(0.29,0.37)">
	<g
   id="g12">
		<g
   id="g11">
			<g
   id="g10">
				<g
   id="g9">
					<g
   id="g8">
						<polygon
   points="167.31,6.65 167.31,17.2 189.09,17.2 189.09,13.05 172.12,13.05 172.12,6.65 "
   id="polygon1" />

						<path
   d="m 165.78,23.56 h 4.41 c -0.89,1.44 -1.41,3.13 -1.41,4.95 0,5.21 4.22,9.42 9.42,9.42 5.2,0 9.42,-4.22 9.42,-9.42 0,-1.82 -0.52,-3.51 -1.42,-4.95 h 4.41 v -4.15 h -24.84 v 4.15 z m 12.42,0 c 2.73,0 4.95,2.22 4.95,4.95 0,2.73 -2.22,4.95 -4.95,4.95 -2.73,0 -4.95,-2.22 -4.95,-4.95 0,-2.73 2.22,-4.95 4.95,-4.95 z"
   id="path1" />

						<polygon
   points="159.39,36.33 159.39,6.65 155.11,6.65 155.11,14.12 153.08,14.12 153.08,6.65 148.8,6.65 148.8,36.33 153.08,36.33 153.08,18.27 155.11,18.27 155.11,36.33 "
   id="polygon2" />

						<polygon
   points="148.42,26.98 143.81,11.55 147.41,11.55 147.41,7.4 135.52,7.4 135.52,11.55 139.13,11.55 134.52,26.98 138.89,26.98 141.47,17.42 144.05,26.98 "
   id="polygon3" />

						<polygon
   points="220.46,36.33 220.46,6.65 216.18,6.65 216.18,14.12 214.15,14.12 214.15,6.65 209.87,6.65 209.87,36.33 214.15,36.33 214.15,18.27 216.18,18.27 216.18,36.33 "
   id="polygon4" />

						<polygon
   points="245.31,6.65 245.31,24.27 250.12,24.27 250.12,16.81 253.29,16.81 253.29,12.66 250.12,12.66 250.12,6.65 "
   id="polygon5" />

						<path
   d="m 242.88,16.3 c 0,-1.53 -0.45,-2.95 -1.2,-4.16 h 1.53 V 7.99 h -5.78 V 6.03 h -4.8 v 1.96 h -5.78 v 4.15 h 1.53 c -0.76,1.21 -1.2,2.63 -1.2,4.16 0,4.34 3.52,7.85 7.85,7.85 4.33,0 7.85,-3.52 7.85,-7.85 z m -11.23,0 c 0,-1.86 1.52,-3.38 3.38,-3.38 1.86,0 3.38,1.52 3.38,3.38 0,1.86 -1.52,3.38 -3.38,3.38 -1.86,-0.01 -3.38,-1.52 -3.38,-3.38 z"
   id="path5" />

						<polygon
   points="250.12,36.33 250.12,26.22 229.69,26.22 229.69,30.36 245.31,30.36 245.31,36.33 "
   id="polygon6" />

						<polygon
   points="267.05,31.43 264.95,31.43 264.95,18.89 260.15,18.89 260.15,31.43 256.45,31.43 256.45,35.58 281.29,35.58 281.29,31.43 279.45,31.43 279.45,7.4 258.28,7.4 258.28,11.55 274.65,11.55 274.65,31.43 271.85,31.43 271.85,18.89 267.05,18.89 "
   id="polygon7" />

						<polygon
   points="207.85,26.87 207.85,22.72 201.16,22.72 201.16,11.54 207.85,11.54 207.85,7.4 196.35,7.4 196.35,26.87 "
   id="polygon8" />

					</g>

				</g>

			</g>

		</g>

	</g>

	<g
   id="g14">
		<g
   id="g13">
			<polygon
   class="st0"
   points="60.86,36.29 41.12,36.29 41.12,6.71 60.86,6.71 60.86,13.05 48.75,13.05 48.75,18.26 60.43,18.26 60.43,24.6 48.75,24.6 48.75,29.96 60.86,29.96 "
   id="polygon12"
   style="fill:#e60012" />

			<rect
   x="64.440002"
   y="6.71"
   class="st0"
   width="7.6300001"
   height="29.58"
   id="rect12"
   style="fill:#e60012" />

			<path
   class="st0"
   d="m 29.58,6.71 h 7.63 v 21.01 c 0,5.14 -3.92,9.3 -10.25,9.3 -6.33,0 -10.25,-4.17 -10.25,-9.3 v -2.55 h 7.63 v 2.55 c 0,1.44 1.17,2.61 2.62,2.61 1.45,0 2.62,-1.17 2.62,-2.61 z"
   id="path12"
   style="fill:#e60012" />

		</g>

	</g>

	<path
   class="st1"
   d="M 104.02,0.64 V 27.9 c 0,1.68 1.36,3.04 3.04,3.04 1.67,0 3.04,-1.36 3.04,-3.04 V 6.72 h 6.08 V 27.9 c 0,5.03 -4.09,9.12 -9.12,9.12 -5.03,0 -9.12,-4.09 -9.12,-9.12 V 0.63 H 79.71 v 27.27 0 c 0,0 0,0 0,0 0,8.39 6.8,15.2 15.2,15.2 1.04,0 2.06,-0.11 3.04,-0.31 -6.94,-1.41 -12.16,-7.54 -12.16,-14.89 0,0 0,0 0,0 v 0 -21.18 h 6.08 v 21.18 0 c 0,0 0,0 0,0 0,8.39 6.8,15.2 15.2,15.2 8.39,0 15.2,-6.8 15.2,-15.2 0,0 0,0 0,0 V 0.64 Z"
   id="path14"
   style="fill:#eb6100" />

</g>
</svg>
